<svg width="167" height="79" viewBox="0 0 167 79" fill="none" xmlns="http://www.w3.org/2000/svg">
<g filter="url(#filter0_i_1_75)">
<g filter="url(#filter1_d_1_75)">
<path d="M16.7383 32.8516C13.4257 28.5866 10.2111 24.7233 10.9207 18.8031C11.365 15.0961 12.1196 11.4428 12.5717 7.73464C12.6772 6.86987 13.2911 4.51979 12.6468 3.85775C11.5287 2.70872 9.75915 6.93094 9.39902 7.73464C7.3502 12.3071 5.52468 17.6142 5.97528 22.8474C6.38174 27.5681 9.86538 31.179 13.1399 33.7624C14.4715 34.813 16.4147 35.5474 17.3064 37.1087C12.2976 36.6638 6.31974 35.1051 2.87286 40.5144C1.05601 43.3656 0.0732669 47.2523 0.0720726 50.7314C0.0718155 51.4805 -0.303339 54.1211 0.660696 54.2508C1.45954 54.3581 1.97435 53.0511 2.30616 52.4343C3.39467 50.4104 4.32674 48.2853 5.41353 46.2615C6.13489 44.9181 6.85804 43.4869 8.02639 42.5682C9.96263 41.0457 13.1395 40.9577 15.4125 40.5314C16.3052 40.3641 17.3454 39.9382 18.2534 40.0337C18.8771 40.0995 19.4132 40.6302 19.9579 40.9401C18.6365 43.0467 17.2551 42.7012 15.2232 43.0859C12.4905 43.6033 8.7117 44.7689 7.5497 47.9643C6.20934 51.6503 8.12033 56.8312 9.92102 59.8842C10.3579 60.6249 11.9991 63.7145 13.0256 62.6969C13.6674 62.0606 13.2206 60.4759 13.1541 59.6713C12.9191 56.8308 11.6706 53.3353 12.0323 50.5188C12.2987 48.4445 15.9496 46.5846 17.4958 45.8358C16.3828 51.6271 25.6998 53.6822 27.1546 48.1772H27.344C28.026 49.9994 30.8432 52.6714 30.3602 54.7757C29.7335 57.506 27.1639 60.2369 25.8676 62.6513C25.495 63.345 24.4826 64.8808 25.0774 65.7126C25.7501 66.6532 28.0283 64.924 28.6697 64.5064C31.5426 62.6364 35.1179 59.0113 35.2908 54.9885C35.566 48.582 28.7364 47.2459 26.5865 42.6429C28.851 42.0554 29.8438 43.4356 31.7 44.8417C35.6665 47.8468 37.96 50.0335 38.1413 55.6271C38.2074 57.6686 38.3808 59.7744 38.627 61.7999C38.703 62.4229 38.6592 63.7439 39.4774 63.7439C40.3554 63.7439 40.8128 62.0988 41.0885 61.3742C42.161 58.5549 42.4961 55.6839 42.4951 52.6471C42.4927 45.6086 36.4665 41.0563 30.5636 40.5144C31.7392 39.1423 34.0715 39.4731 35.6771 39.147C39.0708 38.4578 43.4583 37.0044 45.5653 33.703C48.494 29.1145 48.5559 23.1199 48.5555 17.7388C48.5555 16.8848 48.5385 11.6162 47.0889 12.2913C46.2018 12.7044 45.9486 14.9107 45.7147 15.8231C44.7915 19.4237 44.0776 23.0921 43.1163 26.6788C41.6196 32.263 37.1748 34.5672 32.6469 36.683C32.9704 35.3892 32.791 33.173 33.4098 32.0832C34.024 31.0014 35.887 30.2479 36.8135 29.4682C39.9155 26.8574 41.7222 23.8899 41.3264 19.4417C40.959 15.3098 39.0893 11.2016 36.879 7.94749C36.4657 7.33909 34.676 4.31229 33.8179 5.52264C32.9742 6.71263 34.5071 11.0745 34.8393 12.4175C35.5167 15.1567 37.0367 18.9079 36.7068 21.7831C36.4676 23.8662 34.0991 26.7967 32.6469 27.9559C32.4672 23.5369 29.3334 17.9477 24.882 19.882C22.5987 20.8742 21.4309 23.1714 19.5791 24.7631C19.3749 22.1307 17.7262 19.2129 18.9875 16.6746C20.6971 13.2347 23.4191 10.4086 25.559 7.30893C26.0825 6.55067 27.6175 4.82903 27.2215 3.75887C26.8617 2.78676 25.2221 3.82364 24.6926 4.0867C22.2019 5.32415 19.8575 7.15122 17.9068 9.2854C14.2746 13.2591 12.9397 17.7731 15.0922 23.0602C15.7555 24.6894 17.4868 26.5896 17.7716 28.2914C17.9661 29.4533 16.9503 31.6228 16.7383 32.8516Z" fill="#51E8EF"/>
</g>
<path d="M51.8213 45.7966C51.8324 45.7524 51.8545 45.7358 51.8877 45.7468C51.932 45.7468 51.9707 45.7413 52.0039 45.7302C51.9154 45.6417 51.86 45.5255 51.8379 45.3816C51.8158 45.2266 51.7604 45.0994 51.6719 44.9998C51.694 44.9444 51.7106 44.8891 51.7217 44.8337C51.7438 44.7784 51.7936 44.7563 51.8711 44.7673C51.8379 44.5238 51.8434 44.297 51.8877 44.0867C51.932 43.8764 51.9984 43.6772 52.0869 43.489C52.1865 43.3009 52.2972 43.1182 52.4189 42.9412C52.5518 42.753 52.679 42.5649 52.8008 42.3767C52.9004 42.3546 52.9613 42.3656 52.9834 42.4099C53.0055 42.4431 53.0443 42.432 53.0996 42.3767C53.2767 42.255 53.3984 42.1222 53.4648 41.9783C53.5312 41.8233 53.5645 41.6573 53.5645 41.4802C53.6641 41.1925 53.7747 40.9102 53.8965 40.6335C54.0293 40.3458 54.1787 40.0802 54.3447 39.8367C54.5107 39.5932 54.6878 39.3829 54.876 39.2058C55.0641 39.0177 55.2689 38.8738 55.4902 38.7742C55.6452 38.6414 55.8389 38.5196 56.0713 38.4089C56.3148 38.2983 56.5693 38.2153 56.835 38.1599C57.1117 38.0935 57.3939 38.0603 57.6816 38.0603C57.9694 38.0492 58.235 38.0769 58.4785 38.1433C58.5339 38.1654 58.5671 38.1544 58.5781 38.1101C58.5892 38.0548 58.6169 38.0271 58.6611 38.0271C59.2145 38.0935 59.707 38.2042 60.1387 38.3591C60.5814 38.5141 60.9577 38.7299 61.2676 39.0066C61.4779 39.3386 61.6771 39.6983 61.8652 40.0857C62.0534 40.462 62.1973 40.8604 62.2969 41.281C62.4076 41.6905 62.4574 42.1166 62.4463 42.5593C62.4352 43.002 62.3411 43.4447 62.1641 43.8875C61.7767 44.3744 61.3063 44.7673 60.7529 45.0662C60.1995 45.3539 59.6019 45.5974 58.96 45.7966C58.3291 45.9848 57.6706 46.1397 56.9844 46.2615C56.3092 46.3832 55.6507 46.516 55.0088 46.6599C55.0199 46.9587 55.0199 47.2797 55.0088 47.6228C54.9977 47.9548 54.959 48.2924 54.8926 48.6355C54.8372 48.9675 54.7487 49.294 54.627 49.615C54.5163 49.936 54.3613 50.2348 54.1621 50.5115C53.9408 50.5004 53.7083 50.5225 53.4648 50.5779C53.2324 50.6332 53.0221 50.6886 52.834 50.7439C52.7454 50.6886 52.6569 50.6332 52.5684 50.5779C52.4909 50.5336 52.3913 50.5059 52.2695 50.4949C52.3027 50.3621 52.2695 50.2237 52.1699 50.0798C52.0814 49.936 51.9873 49.7976 51.8877 49.6648C51.7992 49.5209 51.7383 49.3826 51.7051 49.2498C51.6829 49.1059 51.7493 48.9786 51.9043 48.8679C51.8158 48.7904 51.7715 48.6687 51.7715 48.5027C51.8158 48.547 51.8711 48.5691 51.9375 48.5691C51.9154 48.3699 51.9375 48.1319 52.0039 47.8552C52.0814 47.5785 52.1423 47.3074 52.1865 47.0417C52.2419 46.7651 52.2529 46.516 52.2197 46.2947C52.1865 46.0623 52.0537 45.8962 51.8213 45.7966ZM56.1377 41.9119C56.0934 42.0336 56.0547 42.1443 56.0215 42.2439C55.9993 42.3324 55.9717 42.4154 55.9385 42.4929C55.9053 42.5704 55.8665 42.6479 55.8223 42.7253C55.7891 42.8028 55.7503 42.8914 55.7061 42.991C55.7282 43.0574 55.7725 43.1072 55.8389 43.1404C55.9053 43.1736 55.9495 43.2234 55.9717 43.2898C56.1266 43.2123 56.2816 43.157 56.4365 43.1238C56.5915 43.0795 56.7464 43.0463 56.9014 43.0242C57.0563 43.002 57.2113 42.9744 57.3662 42.9412C57.5212 42.908 57.6816 42.8526 57.8477 42.7751C58.0137 42.6977 58.1852 42.6368 58.3623 42.5925C58.5505 42.5372 58.7331 42.4819 58.9102 42.4265C59.0872 42.3712 59.2588 42.3103 59.4248 42.2439C59.5908 42.1664 59.7347 42.0668 59.8564 41.9451C59.7015 41.8012 59.4691 41.6739 59.1592 41.5632C58.8493 41.4526 58.5117 41.3861 58.1465 41.364C57.7923 41.3308 57.4326 41.3529 57.0674 41.4304C56.7132 41.5079 56.4033 41.6684 56.1377 41.9119ZM78.0119 41.1316C78.023 41.2091 78.023 41.2699 78.0119 41.3142C78.0119 41.3474 78.0064 41.3806 77.9953 41.4138C77.9953 41.447 77.9953 41.4858 77.9953 41.53C77.9953 41.5632 78.0064 41.6186 78.0285 41.696C77.7961 42.0723 77.5249 42.3324 77.215 42.4763C76.9162 42.6091 76.5897 42.7087 76.2355 42.7751C75.8814 42.8305 75.5161 42.8914 75.1398 42.9578C74.7746 43.0242 74.4094 43.1681 74.0441 43.3894C73.9003 43.3341 73.7674 43.3341 73.6457 43.3894C73.535 43.4447 73.369 43.4613 73.1477 43.4392C73.0812 43.5056 72.9982 43.5554 72.8986 43.5886C72.799 43.6108 72.6994 43.6384 72.5998 43.6716C72.6441 43.7712 72.6607 43.8764 72.6496 43.9871C72.6496 44.0867 72.6662 44.1697 72.6994 44.2361C73.0868 44.2693 73.5129 44.2638 73.9777 44.2195C74.4536 44.1752 74.9185 44.1475 75.3723 44.1365C75.3833 44.1918 75.3778 44.2306 75.3557 44.2527C75.3335 44.2638 75.328 44.2914 75.3391 44.3357C75.4165 44.391 75.494 44.463 75.5715 44.5515C75.649 44.629 75.7264 44.7065 75.8039 44.7839C75.8814 44.8614 75.9589 44.9278 76.0363 44.9832C76.1249 45.0274 76.2245 45.044 76.3352 45.033C76.3794 45.1215 76.4071 45.2211 76.4182 45.3318C76.4403 45.4314 76.4292 45.5365 76.385 45.6472C76.2079 45.769 76.0308 45.8962 75.8537 46.0291C75.6766 46.1508 75.4885 46.2615 75.2893 46.3611C75.1011 46.4607 74.8964 46.5437 74.675 46.6101C74.4647 46.6654 74.2268 46.6876 73.9611 46.6765C73.9058 46.6765 73.8615 46.6765 73.8283 46.6765C73.8062 46.6765 73.773 46.6599 73.7287 46.6267C73.6402 46.682 73.5129 46.6986 73.3469 46.6765C73.1919 46.6544 73.0702 46.671 72.9816 46.7263C72.8599 46.671 72.7105 46.6488 72.5334 46.6599C72.3674 46.6599 72.218 46.6378 72.0852 46.5935C71.9081 46.8259 71.7476 47.075 71.6037 47.3406C71.4598 47.6062 71.3326 47.8884 71.2219 48.1873C71.5982 48.2426 71.9081 48.2647 72.1516 48.2537C72.4061 48.2426 72.6441 48.226 72.8654 48.2039C73.0868 48.1707 73.3137 48.143 73.5461 48.1208C73.7785 48.0876 74.0718 48.0766 74.426 48.0876C74.6473 47.9659 74.9074 47.8884 75.2062 47.8552C75.5161 47.811 75.7984 47.7445 76.0529 47.656C76.1415 47.6892 76.2189 47.7501 76.2854 47.8386C76.3518 47.9161 76.4126 47.9936 76.468 48.071C76.5344 48.1375 76.6008 48.1983 76.6672 48.2537C76.7336 48.309 76.8166 48.3311 76.9162 48.3201C76.9605 48.3643 76.9882 48.4197 76.9992 48.4861C77.0214 48.5414 77.038 48.5968 77.049 48.6521C77.0601 48.7074 77.0767 48.7572 77.0988 48.8015C77.132 48.8347 77.1818 48.8458 77.2482 48.8347C77.0822 49.2 76.8885 49.4822 76.6672 49.6814C76.4569 49.8695 76.2134 50.0134 75.9367 50.113C75.66 50.2126 75.3501 50.2901 75.007 50.3455C74.675 50.4008 74.3042 50.4672 73.8947 50.5447C73.7951 50.5668 73.7121 50.5613 73.6457 50.5281C73.5793 50.5059 73.5018 50.4949 73.4133 50.4949C73.1587 50.5502 72.8544 50.6 72.5002 50.6443C72.146 50.6886 71.7863 50.7052 71.4211 50.6941C71.0559 50.683 70.7072 50.6332 70.3752 50.5447C70.0432 50.4672 69.772 50.3233 69.5617 50.113C69.4732 50.0356 69.4123 49.947 69.3791 49.8474C69.357 49.7367 69.285 49.6537 69.1633 49.5984C69.1522 49.4545 69.1301 49.294 69.0969 49.1169C69.0637 48.9399 69.0305 48.7572 68.9973 48.5691C68.9641 48.3699 68.9364 48.1762 68.9143 47.988C68.9032 47.7999 68.9143 47.6283 68.9475 47.4734C68.9807 47.3074 69.0471 47.158 69.1467 47.0251C69.2574 46.8923 69.2961 46.7485 69.2629 46.5935C69.3182 46.5824 69.3514 46.5548 69.3625 46.5105C69.3736 46.4552 69.4178 46.433 69.4953 46.4441C69.5617 46.2449 69.6337 46.0567 69.7111 45.8796C69.7886 45.7026 69.8661 45.531 69.9436 45.365C70.0321 45.199 70.1151 45.033 70.1926 44.8669C70.2811 44.6899 70.3641 44.4962 70.4416 44.2859C70.2867 44.142 70.1704 43.9871 70.093 43.821C70.0266 43.644 69.9768 43.4724 69.9436 43.3064C69.9104 43.1293 69.8827 42.9522 69.8605 42.7751C69.8384 42.587 69.7997 42.3988 69.7443 42.2107C69.855 42.0447 69.9878 41.9119 70.1428 41.8123C70.3088 41.7016 70.4859 41.613 70.674 41.5466C70.8622 41.4802 71.0669 41.4249 71.2883 41.3806C71.5096 41.3363 71.7421 41.2865 71.9855 41.2312C72.4283 41.0873 72.8212 40.9766 73.1643 40.8992C73.5184 40.8217 73.8615 40.7608 74.1936 40.7166C74.5367 40.6612 74.8908 40.6114 75.2561 40.5671C75.6213 40.5229 76.0363 40.4565 76.5012 40.3679C76.6008 40.4675 76.6949 40.5173 76.7834 40.5173C76.8277 40.4177 76.8775 40.3901 76.9328 40.4343C76.9992 40.4675 77.0269 40.4343 77.0158 40.3347C77.1265 40.5229 77.2648 40.6833 77.4309 40.8162C77.6079 40.9379 77.8016 41.0431 78.0119 41.1316ZM84.6791 43.0076C84.7566 42.7751 84.8783 42.5759 85.0443 42.4099C85.2214 42.2439 85.4096 42.1056 85.6088 41.9949C85.8191 41.8731 86.0349 41.7735 86.2562 41.696C86.4776 41.6186 86.6879 41.5522 86.8871 41.4968C87.3298 41.3087 87.8002 41.1316 88.2982 40.9656C88.8074 40.7885 89.322 40.6335 89.8422 40.5007C90.3734 40.3679 90.9158 40.2849 91.4691 40.2517C92.0225 40.2074 92.6036 40.2738 93.2123 40.4509C93.2455 40.5616 93.2953 40.6667 93.3617 40.7664C93.4281 40.866 93.4945 40.9656 93.5609 41.0652C93.6384 41.1648 93.7048 41.2644 93.7602 41.364C93.8155 41.4526 93.8487 41.5466 93.8598 41.6462C93.9704 41.7458 94.059 41.8565 94.1254 41.9783C94.1918 42.0889 94.2029 42.2384 94.1586 42.4265C94.0479 42.5151 93.9372 42.5981 93.8266 42.6755C93.727 42.7419 93.6163 42.8028 93.4945 42.8582C93.085 42.7585 92.67 42.7253 92.2494 42.7585C91.8288 42.7917 91.4525 42.8194 91.1205 42.8416C91.0209 42.7419 90.8992 42.6921 90.7553 42.6921C90.6225 42.6921 90.4786 42.7143 90.3236 42.7585C90.1798 42.8028 90.0303 42.8471 89.8754 42.8914C89.7315 42.9356 89.5932 42.9467 89.4604 42.9246C89.3497 43.0131 89.2113 43.074 89.0453 43.1072C88.8904 43.1293 88.7188 43.1514 88.5307 43.1736C88.5196 43.2289 88.5307 43.2677 88.5639 43.2898C88.5971 43.3009 88.6026 43.3341 88.5805 43.3894C88.6469 43.4669 88.7299 43.5222 88.8295 43.5554C88.9402 43.5886 89.0508 43.6218 89.1615 43.655C89.2833 43.6882 89.3884 43.7325 89.477 43.7878C89.5655 43.8321 89.6264 43.9096 89.6596 44.0203C89.8256 44.0203 89.9695 44.059 90.0912 44.1365C90.213 44.2139 90.3126 44.308 90.39 44.4187C90.4675 44.5294 90.5229 44.6511 90.5561 44.7839C90.6003 44.9057 90.6225 45.0164 90.6225 45.116C90.6557 45.2045 90.6944 45.2432 90.7387 45.2322C90.7829 45.2211 90.8327 45.2432 90.8881 45.2986C90.9213 45.4425 91.0043 45.5919 91.1371 45.7468C91.2699 45.8907 91.3751 46.0512 91.4525 46.2283C91.4747 46.505 91.4913 46.754 91.5023 46.9753C91.5134 47.1856 91.4747 47.4014 91.3861 47.6228C91.2201 48.0323 90.9877 48.3975 90.6889 48.7185C90.4011 49.0395 90.0691 49.3272 89.6928 49.5818C89.3275 49.8253 88.9346 50.0356 88.5141 50.2126C88.0935 50.3897 87.684 50.5391 87.2855 50.6609C87.2413 50.6498 87.197 50.6498 87.1527 50.6609C87.1085 50.672 87.0974 50.6443 87.1195 50.5779C87.031 50.6554 86.9314 50.7052 86.8207 50.7273C86.7211 50.7494 86.6104 50.755 86.4887 50.7439C86.3669 50.7439 86.2396 50.7384 86.1068 50.7273C85.9851 50.7162 85.8689 50.7218 85.7582 50.7439C85.6807 50.6664 85.6088 50.5889 85.5424 50.5115C85.487 50.4451 85.4428 50.3565 85.4096 50.2458C85.3542 50.2458 85.3266 50.2182 85.3266 50.1628C85.3376 50.1075 85.321 50.0798 85.2768 50.0798C85.3432 49.9692 85.3708 49.9083 85.3598 49.8972C85.3598 49.8751 85.3432 49.8585 85.31 49.8474C85.2878 49.8363 85.2657 49.8253 85.2436 49.8142C85.2214 49.7921 85.2159 49.7644 85.227 49.7312C85.2712 49.6427 85.2878 49.5431 85.2768 49.4324C85.2657 49.3106 85.2546 49.1889 85.2436 49.0671C85.2325 48.9454 85.238 48.8292 85.2602 48.7185C85.2934 48.6078 85.3764 48.5193 85.5092 48.4529C85.8855 48.4972 86.2396 48.4861 86.5717 48.4197C86.9148 48.3422 87.2357 48.2371 87.5346 48.1042C87.8334 47.9714 88.1156 47.8276 88.3812 47.6726C88.6579 47.5177 88.9291 47.3793 89.1947 47.2576C89.2279 47.158 89.2722 47.075 89.3275 47.0085C89.3939 46.9421 89.4604 46.8813 89.5268 46.8259C89.5932 46.7706 89.654 46.7097 89.7094 46.6433C89.7647 46.5769 89.8034 46.4939 89.8256 46.3943C89.8367 46.3168 89.8145 46.2725 89.7592 46.2615C89.7149 46.2393 89.6928 46.1951 89.6928 46.1287L89.5102 46.0789C89.2999 45.9571 89.0619 45.8575 88.7963 45.78C88.5307 45.6915 88.3038 45.5974 88.1156 45.4978C87.9939 45.5642 87.8777 45.5808 87.767 45.5476C87.6674 45.5144 87.5346 45.4812 87.3686 45.448C86.9923 45.4259 86.627 45.3871 86.2729 45.3318C85.9298 45.2764 85.5977 45.1768 85.2768 45.033C85.2546 44.9776 85.227 44.9278 85.1937 44.8835C85.1605 44.8393 85.0997 44.8282 85.0111 44.8503C84.9447 44.7618 84.8783 44.6788 84.8119 44.6013C84.7455 44.5128 84.6846 44.4187 84.6293 44.3191C84.6514 44.1863 84.668 44.0756 84.6791 43.9871C84.6902 43.8875 84.657 43.7934 84.5795 43.7048C84.6238 43.561 84.657 43.4447 84.6791 43.3562C84.7012 43.2677 84.7012 43.1514 84.6791 43.0076ZM108.546 42.4929C108.269 42.4929 107.97 42.5151 107.649 42.5593C107.328 42.5925 107.013 42.6313 106.703 42.6755C106.481 42.7087 106.266 42.7364 106.055 42.7585C105.856 42.7807 105.673 42.7973 105.507 42.8083C105.43 43.0518 105.352 43.2677 105.275 43.4558C105.198 43.644 105.115 43.8266 105.026 44.0037C104.937 44.1918 104.854 44.3855 104.777 44.5847C104.711 44.7729 104.644 44.9776 104.578 45.199C104.467 45.3761 104.373 45.5421 104.296 45.697C104.229 45.8409 104.174 46.0069 104.129 46.1951C103.997 46.3611 103.897 46.5382 103.831 46.7263C103.764 46.9034 103.714 47.0583 103.681 47.1912L103.615 47.3904C103.548 47.4568 103.51 47.5121 103.499 47.5564C103.488 47.5896 103.46 47.6228 103.416 47.656C103.405 47.7778 103.366 47.8995 103.299 48.0212C103.277 48.0766 103.261 48.1319 103.25 48.1873C103.239 48.2315 103.233 48.2647 103.233 48.2869C103.233 48.3975 103.205 48.4695 103.15 48.5027C103.161 48.558 103.161 48.6189 103.15 48.6853C103.139 48.7406 103.128 48.796 103.117 48.8513C103.084 48.9841 103.073 49.0893 103.084 49.1667C103.117 49.211 103.144 49.2498 103.167 49.283C103.2 49.3162 103.222 49.3604 103.233 49.4158C103.299 49.46 103.349 49.4877 103.382 49.4988C103.427 49.532 103.493 49.5707 103.582 49.615L103.731 49.781C103.786 50.102 103.737 50.3565 103.582 50.5447C103.416 50.755 103.133 50.8601 102.735 50.8601H102.536C102.48 50.8048 102.447 50.7605 102.436 50.7273C102.348 50.6941 102.276 50.6664 102.22 50.6443C102.165 50.6222 102.115 50.5779 102.071 50.5115C101.927 50.4451 101.811 50.3897 101.722 50.3455L101.573 50.2625C101.573 50.1407 101.573 50.0743 101.573 50.0632C101.495 49.9636 101.435 49.8529 101.39 49.7312C101.357 49.6095 101.329 49.4877 101.307 49.366C101.285 49.2664 101.257 49.1723 101.224 49.0837C101.202 48.9952 101.169 48.9177 101.125 48.8513C101.102 48.2094 101.163 47.6671 101.307 47.2244C101.451 46.7817 101.601 46.3556 101.755 45.946C101.844 45.7247 101.933 45.5033 102.021 45.282C102.11 45.0496 102.187 44.8116 102.254 44.5681L102.403 44.4021C102.48 44.225 102.541 44.0811 102.586 43.9705C102.641 43.8487 102.696 43.727 102.752 43.6052C102.785 43.5278 102.812 43.4558 102.835 43.3894C102.868 43.3119 102.895 43.2455 102.918 43.1902C102.851 43.1902 102.79 43.1957 102.735 43.2068C102.68 43.2068 102.624 43.2123 102.569 43.2234C102.503 43.2345 102.442 43.2455 102.386 43.2566C102.331 43.2566 102.276 43.2566 102.22 43.2566C102.143 43.2566 102.088 43.2511 102.054 43.24C101.933 43.2953 101.8 43.323 101.656 43.323H101.49C101.457 43.323 101.423 43.323 101.39 43.323C101.368 43.3119 101.346 43.3064 101.324 43.3064C101.213 43.3064 101.125 43.323 101.058 43.3562C100.925 43.3562 100.798 43.3562 100.676 43.3562H100.51C100.488 43.3562 100.461 43.3617 100.427 43.3728C100.394 43.3728 100.366 43.3728 100.344 43.3728C100.267 43.3728 100.184 43.3673 100.095 43.3562C100.007 43.3341 99.9127 43.2953 99.8131 43.24C99.6803 43.0629 99.5917 42.9688 99.5475 42.9578L99.398 42.7585C99.387 42.6921 99.3704 42.6313 99.3482 42.5759C99.3261 42.5095 99.304 42.4376 99.2818 42.3601C99.2376 42.2494 99.1933 42.1332 99.149 42.0115C99.1158 41.8787 99.0992 41.7237 99.0992 41.5466C99.1103 41.4581 99.1324 41.3917 99.1656 41.3474C99.1988 41.3031 99.2265 41.2644 99.2486 41.2312L99.2984 40.9822L99.5143 40.9988H99.9791C100.333 40.9988 100.693 40.9877 101.058 40.9656C101.423 40.9324 101.8 40.8992 102.187 40.866C102.408 40.8438 102.63 40.8217 102.851 40.7996C103.084 40.7774 103.322 40.7553 103.565 40.7332C103.609 40.6335 103.654 40.5395 103.698 40.4509L103.864 40.3679C104.063 40.3569 104.201 40.3845 104.279 40.4509C104.367 40.5063 104.439 40.5616 104.495 40.6169C104.738 40.5948 104.982 40.5727 105.225 40.5505C105.48 40.5173 105.734 40.4786 105.989 40.4343C106.365 40.379 106.741 40.3292 107.118 40.2849C107.505 40.2406 107.876 40.2185 108.23 40.2185C108.385 40.2185 108.534 40.224 108.678 40.2351C108.822 40.2462 108.955 40.2628 109.077 40.2849L109.243 40.4011C109.276 40.4675 109.32 40.5284 109.376 40.5837C109.442 40.6391 109.508 40.6944 109.575 40.7498C109.708 40.8715 109.84 41.0154 109.973 41.1814C110.106 41.3474 110.156 41.5909 110.123 41.9119C110.034 42.0447 109.968 42.1222 109.923 42.1443L109.774 42.3435L109.608 42.3269C109.542 42.3269 109.481 42.338 109.425 42.3601C109.37 42.3712 109.315 42.3878 109.259 42.4099C109.215 42.432 109.171 42.4542 109.127 42.4763C109.082 42.4874 109.032 42.4985 108.977 42.5095C108.878 42.5095 108.795 42.5095 108.728 42.5095C108.673 42.4985 108.612 42.4929 108.546 42.4929ZM117.57 49.3162C117.625 49.6482 117.603 49.9083 117.504 50.0964C117.415 50.2846 117.282 50.4229 117.105 50.5115C116.939 50.6111 116.746 50.6664 116.524 50.6775C116.303 50.6886 116.093 50.6775 115.893 50.6443C115.783 50.4893 115.683 50.2957 115.595 50.0632C115.506 49.8308 115.423 49.5929 115.346 49.3494C115.268 49.0948 115.196 48.8458 115.13 48.6023C115.074 48.3588 115.025 48.143 114.98 47.9548C115.036 47.822 115.069 47.6726 115.08 47.5066C115.102 47.3295 115.113 47.1524 115.113 46.9753C115.124 46.7983 115.13 46.6212 115.13 46.4441C115.141 46.2559 115.157 46.0789 115.179 45.9128C115.257 45.448 115.368 45.0053 115.512 44.5847C115.666 44.1641 115.788 43.727 115.877 43.2732C115.899 43.1736 115.888 43.0795 115.844 42.991C115.81 42.9024 115.805 42.8194 115.827 42.7419C115.838 42.6977 115.871 42.67 115.927 42.6589C115.982 42.6368 116.015 42.5981 116.026 42.5427C116.059 42.421 116.065 42.3214 116.043 42.2439C116.032 42.1664 116.054 42.0723 116.109 41.9617C116.165 41.8731 116.231 41.7458 116.308 41.5798C116.397 41.4028 116.43 41.2201 116.408 41.032C116.508 40.9656 116.602 40.8881 116.69 40.7996C116.779 40.711 116.867 40.6335 116.956 40.5671C117.055 40.4897 117.161 40.4233 117.271 40.3679C117.393 40.3126 117.537 40.2849 117.703 40.2849C117.791 40.3956 117.847 40.5173 117.869 40.6501C117.902 40.783 117.93 40.9158 117.952 41.0486C117.985 41.1814 118.029 41.3087 118.085 41.4304C118.14 41.5411 118.234 41.6296 118.367 41.696C118.367 41.7846 118.367 41.8953 118.367 42.0281C118.367 42.1609 118.373 42.2937 118.384 42.4265C118.395 42.5483 118.417 42.6645 118.45 42.7751C118.494 42.8748 118.561 42.9412 118.649 42.9744C118.45 43.5056 118.262 44.0313 118.085 44.5515C117.919 45.0717 117.78 45.5974 117.67 46.1287C117.559 46.6488 117.487 47.1746 117.454 47.7058C117.432 48.2371 117.471 48.7738 117.57 49.3162Z" fill="#51E8EF"/>
<path d="M51.791 32.043C51.8027 31.9961 51.8262 31.9785 51.8613 31.9902C51.9082 31.9902 51.9492 31.9844 51.9844 31.9727C51.8906 31.8789 51.832 31.7559 51.8086 31.6035C51.7852 31.4395 51.7266 31.3047 51.6328 31.1992C51.6562 31.1406 51.6738 31.082 51.6855 31.0234C51.709 30.9648 51.7617 30.9414 51.8438 30.9531C51.8086 30.6953 51.8145 30.4551 51.8613 30.2324C51.9082 30.0098 51.9785 29.7988 52.0723 29.5996C52.1777 29.4004 52.2949 29.207 52.4238 29.0195C52.5645 28.8203 52.6992 28.6211 52.8281 28.4219C52.9336 28.3984 52.998 28.4102 53.0215 28.457C53.0449 28.4922 53.0859 28.4805 53.1445 28.4219C53.332 28.293 53.4609 28.1523 53.5312 28C53.6016 27.8359 53.6367 27.6602 53.6367 27.4727C53.7422 27.168 53.8594 26.8691 53.9883 26.5762C54.1289 26.2715 54.2871 25.9902 54.4629 25.7324C54.6387 25.4746 54.8262 25.252 55.0254 25.0645C55.2246 24.8652 55.4414 24.7129 55.6758 24.6074C55.8398 24.4668 56.0449 24.3379 56.291 24.2207C56.5488 24.1035 56.8184 24.0156 57.0996 23.957C57.3926 23.8867 57.6914 23.8516 57.9961 23.8516C58.3008 23.8398 58.582 23.8691 58.8398 23.9395C58.8984 23.9629 58.9336 23.9512 58.9453 23.9043C58.957 23.8457 58.9863 23.8164 59.0332 23.8164C59.6191 23.8867 60.1406 24.0039 60.5977 24.168C61.0664 24.332 61.4648 24.5605 61.793 24.8535C62.0156 25.2051 62.2266 25.5859 62.4258 25.9961C62.625 26.3945 62.7773 26.8164 62.8828 27.2617C63 27.6953 63.0527 28.1465 63.041 28.6152C63.0293 29.084 62.9297 29.5527 62.7422 30.0215C62.332 30.5371 61.834 30.9531 61.248 31.2695C60.6621 31.5742 60.0293 31.832 59.3496 32.043C58.6816 32.2422 57.9844 32.4062 57.2578 32.5352C56.543 32.6641 55.8457 32.8047 55.166 32.957C55.1777 33.2734 55.1777 33.6133 55.166 33.9766C55.1543 34.3281 55.1133 34.6855 55.043 35.0488C54.9844 35.4004 54.8906 35.7461 54.7617 36.0859C54.6445 36.4258 54.4805 36.7422 54.2695 37.0352C54.0352 37.0234 53.7891 37.0469 53.5312 37.1055C53.2852 37.1641 53.0625 37.2227 52.8633 37.2812C52.7695 37.2227 52.6758 37.1641 52.582 37.1055C52.5 37.0586 52.3945 37.0293 52.2656 37.0176C52.3008 36.877 52.2656 36.7305 52.1602 36.5781C52.0664 36.4258 51.9668 36.2793 51.8613 36.1387C51.7676 35.9863 51.7031 35.8398 51.668 35.6992C51.6445 35.5469 51.7148 35.4121 51.8789 35.2949C51.7852 35.2129 51.7383 35.084 51.7383 34.9082C51.7852 34.9551 51.8438 34.9785 51.9141 34.9785C51.8906 34.7676 51.9141 34.5156 51.9844 34.2227C52.0664 33.9297 52.1309 33.6426 52.1777 33.3613C52.2363 33.0684 52.248 32.8047 52.2129 32.5703C52.1777 32.3242 52.0371 32.1484 51.791 32.043ZM56.3613 27.9297C56.3145 28.0586 56.2734 28.1758 56.2383 28.2812C56.2148 28.375 56.1855 28.4629 56.1504 28.5449C56.1152 28.627 56.0742 28.709 56.0273 28.791C55.9922 28.873 55.9512 28.9668 55.9043 29.0723C55.9277 29.1426 55.9746 29.1953 56.0449 29.2305C56.1152 29.2656 56.1621 29.3184 56.1855 29.3887C56.3496 29.3066 56.5137 29.248 56.6777 29.2129C56.8418 29.166 57.0059 29.1309 57.1699 29.1074C57.334 29.084 57.498 29.0547 57.6621 29.0195C57.8262 28.9844 57.9961 28.9258 58.1719 28.8438C58.3477 28.7617 58.5293 28.6973 58.7168 28.6504C58.916 28.5918 59.1094 28.5332 59.2969 28.4746C59.4844 28.416 59.666 28.3516 59.8418 28.2812C60.0176 28.1992 60.1699 28.0938 60.2988 27.9648C60.1348 27.8125 59.8887 27.6777 59.5605 27.5605C59.2324 27.4434 58.875 27.373 58.4883 27.3496C58.1133 27.3145 57.7324 27.3379 57.3457 27.4199C56.9707 27.502 56.6426 27.6719 56.3613 27.9297ZM72.3223 27.1035C72.334 27.1855 72.334 27.25 72.3223 27.2969C72.3223 27.332 72.3164 27.3672 72.3047 27.4023C72.3047 27.4375 72.3047 27.4785 72.3047 27.5254C72.3047 27.5605 72.3164 27.6191 72.3398 27.7012C72.0938 28.0996 71.8066 28.375 71.4785 28.5273C71.1621 28.668 70.8164 28.7734 70.4414 28.8438C70.0664 28.9023 69.6797 28.9668 69.2812 29.0371C68.8945 29.1074 68.5078 29.2598 68.1211 29.4941C67.9688 29.4355 67.8281 29.4355 67.6992 29.4941C67.582 29.5527 67.4062 29.5703 67.1719 29.5469C67.1016 29.6172 67.0137 29.6699 66.9082 29.7051C66.8027 29.7285 66.6973 29.7578 66.5918 29.793C66.6387 29.8984 66.6562 30.0098 66.6445 30.127C66.6445 30.2324 66.6621 30.3203 66.6973 30.3906C67.1074 30.4258 67.5586 30.4199 68.0508 30.373C68.5547 30.3262 69.0469 30.2969 69.5273 30.2852C69.5391 30.3438 69.5332 30.3848 69.5098 30.4082C69.4863 30.4199 69.4805 30.4492 69.4922 30.4961C69.5742 30.5547 69.6562 30.6309 69.7383 30.7246C69.8203 30.8066 69.9023 30.8887 69.9844 30.9707C70.0664 31.0527 70.1484 31.123 70.2305 31.1816C70.3242 31.2285 70.4297 31.2461 70.5469 31.2344C70.5938 31.3281 70.623 31.4336 70.6348 31.5508C70.6582 31.6562 70.6465 31.7676 70.5996 31.8848C70.4121 32.0137 70.2246 32.1484 70.0371 32.2891C69.8496 32.418 69.6504 32.5352 69.4395 32.6406C69.2402 32.7461 69.0234 32.834 68.7891 32.9043C68.5664 32.9629 68.3145 32.9863 68.0332 32.9746C67.9746 32.9746 67.9277 32.9746 67.8926 32.9746C67.8691 32.9746 67.834 32.957 67.7871 32.9219C67.6934 32.9805 67.5586 32.998 67.3828 32.9746C67.2188 32.9512 67.0898 32.9688 66.9961 33.0273C66.8672 32.9688 66.709 32.9453 66.5215 32.957C66.3457 32.957 66.1875 32.9336 66.0469 32.8867C65.8594 33.1328 65.6895 33.3965 65.5371 33.6777C65.3848 33.959 65.25 34.2578 65.1328 34.5742C65.5312 34.6328 65.8594 34.6562 66.1172 34.6445C66.3867 34.6328 66.6387 34.6152 66.873 34.5918C67.1074 34.5566 67.3477 34.5273 67.5938 34.5039C67.8398 34.4688 68.1504 34.457 68.5254 34.4688C68.7598 34.3398 69.0352 34.2578 69.3516 34.2227C69.6797 34.1758 69.9785 34.1055 70.248 34.0117C70.3418 34.0469 70.4238 34.1113 70.4941 34.2051C70.5645 34.2871 70.6289 34.3691 70.6875 34.4512C70.7578 34.5215 70.8281 34.5859 70.8984 34.6445C70.9688 34.7031 71.0566 34.7266 71.1621 34.7148C71.209 34.7617 71.2383 34.8203 71.25 34.8906C71.2734 34.9492 71.291 35.0078 71.3027 35.0664C71.3145 35.125 71.332 35.1777 71.3555 35.2246C71.3906 35.2598 71.4434 35.2715 71.5137 35.2598C71.3379 35.6465 71.1328 35.9453 70.8984 36.1562C70.6758 36.3555 70.418 36.5078 70.125 36.6133C69.832 36.7188 69.5039 36.8008 69.1406 36.8594C68.7891 36.918 68.3965 36.9883 67.9629 37.0703C67.8574 37.0938 67.7695 37.0879 67.6992 37.0527C67.6289 37.0293 67.5469 37.0176 67.4531 37.0176C67.1836 37.0762 66.8613 37.1289 66.4863 37.1758C66.1113 37.2227 65.7305 37.2402 65.3438 37.2285C64.957 37.2168 64.5879 37.1641 64.2363 37.0703C63.8848 36.9883 63.5977 36.8359 63.375 36.6133C63.2812 36.5312 63.2168 36.4375 63.1816 36.332C63.1582 36.2148 63.082 36.127 62.9531 36.0684C62.9414 35.916 62.918 35.7461 62.8828 35.5586C62.8477 35.3711 62.8125 35.1777 62.7773 34.9785C62.7422 34.7676 62.7129 34.5625 62.6895 34.3633C62.6777 34.1641 62.6895 33.9824 62.7246 33.8184C62.7598 33.6426 62.8301 33.4844 62.9355 33.3438C63.0527 33.2031 63.0938 33.0508 63.0586 32.8867C63.1172 32.875 63.1523 32.8457 63.1641 32.7988C63.1758 32.7402 63.2227 32.7168 63.3047 32.7285C63.375 32.5176 63.4512 32.3184 63.5332 32.1309C63.6152 31.9434 63.6973 31.7617 63.7793 31.5859C63.873 31.4102 63.9609 31.2344 64.043 31.0586C64.1367 30.8711 64.2246 30.666 64.3066 30.4434C64.1426 30.291 64.0195 30.127 63.9375 29.9512C63.8672 29.7637 63.8145 29.582 63.7793 29.4062C63.7441 29.2188 63.7148 29.0312 63.6914 28.8438C63.668 28.6445 63.627 28.4453 63.5684 28.2461C63.6855 28.0703 63.8262 27.9297 63.9902 27.8242C64.166 27.707 64.3535 27.6133 64.5527 27.543C64.752 27.4727 64.9688 27.4141 65.2031 27.3672C65.4375 27.3203 65.6836 27.2676 65.9414 27.209C66.4102 27.0566 66.8262 26.9395 67.1895 26.8574C67.5645 26.7754 67.9277 26.7109 68.2793 26.6641C68.6426 26.6055 69.0176 26.5527 69.4043 26.5059C69.791 26.459 70.2305 26.3887 70.7227 26.2949C70.8281 26.4004 70.9277 26.4531 71.0215 26.4531C71.0684 26.3477 71.1211 26.3184 71.1797 26.3652C71.25 26.4004 71.2793 26.3652 71.2676 26.2598C71.3848 26.459 71.5312 26.6289 71.707 26.7695C71.8945 26.8984 72.0996 27.0098 72.3223 27.1035ZM72.1816 29.0898C72.2637 28.8438 72.3926 28.6328 72.5684 28.457C72.7559 28.2812 72.9551 28.1348 73.166 28.0176C73.3887 27.8887 73.6172 27.7832 73.8516 27.7012C74.0859 27.6191 74.3086 27.5488 74.5195 27.4902C74.9883 27.291 75.4863 27.1035 76.0137 26.9277C76.5527 26.7402 77.0977 26.5762 77.6484 26.4355C78.2109 26.2949 78.7852 26.207 79.3711 26.1719C79.957 26.125 80.5723 26.1953 81.2168 26.3828C81.252 26.5 81.3047 26.6113 81.375 26.7168C81.4453 26.8223 81.5156 26.9277 81.5859 27.0332C81.668 27.1387 81.7383 27.2441 81.7969 27.3496C81.8555 27.4434 81.8906 27.543 81.9023 27.6484C82.0195 27.7539 82.1133 27.8711 82.1836 28C82.2539 28.1172 82.2656 28.2754 82.2188 28.4746C82.1016 28.5684 81.9844 28.6562 81.8672 28.7383C81.7617 28.8086 81.6445 28.873 81.5156 28.9316C81.082 28.8262 80.6426 28.791 80.1973 28.8262C79.752 28.8613 79.3535 28.8906 79.002 28.9141C78.8965 28.8086 78.7676 28.7559 78.6152 28.7559C78.4746 28.7559 78.3223 28.7793 78.1582 28.8262C78.0059 28.873 77.8477 28.9199 77.6836 28.9668C77.5312 29.0137 77.3848 29.0254 77.2441 29.002C77.127 29.0957 76.9805 29.1602 76.8047 29.1953C76.6406 29.2188 76.459 29.2422 76.2598 29.2656C76.248 29.3242 76.2598 29.3652 76.2949 29.3887C76.3301 29.4004 76.3359 29.4355 76.3125 29.4941C76.3828 29.5762 76.4707 29.6348 76.5762 29.6699C76.6934 29.7051 76.8105 29.7402 76.9277 29.7754C77.0566 29.8105 77.168 29.8574 77.2617 29.916C77.3555 29.9629 77.4199 30.0449 77.4551 30.1621C77.6309 30.1621 77.7832 30.2031 77.9121 30.2852C78.041 30.3672 78.1465 30.4668 78.2285 30.584C78.3105 30.7012 78.3691 30.8301 78.4043 30.9707C78.4512 31.0996 78.4746 31.2168 78.4746 31.3223C78.5098 31.416 78.5508 31.457 78.5977 31.4453C78.6445 31.4336 78.6973 31.457 78.7559 31.5156C78.791 31.668 78.8789 31.8262 79.0195 31.9902C79.1602 32.1426 79.2715 32.3125 79.3535 32.5C79.377 32.793 79.3945 33.0566 79.4062 33.291C79.418 33.5137 79.377 33.7422 79.2832 33.9766C79.1074 34.4102 78.8613 34.7969 78.5449 35.1367C78.2402 35.4766 77.8887 35.7812 77.4902 36.0508C77.1035 36.3086 76.6875 36.5312 76.2422 36.7188C75.7969 36.9062 75.3633 37.0645 74.9414 37.1934C74.8945 37.1816 74.8477 37.1816 74.8008 37.1934C74.7539 37.2051 74.7422 37.1758 74.7656 37.1055C74.6719 37.1875 74.5664 37.2402 74.4492 37.2637C74.3438 37.2871 74.2266 37.293 74.0977 37.2812C73.9688 37.2812 73.834 37.2754 73.6934 37.2637C73.5645 37.252 73.4414 37.2578 73.3242 37.2812C73.2422 37.1992 73.166 37.1172 73.0957 37.0352C73.0371 36.9648 72.9902 36.8711 72.9551 36.7539C72.8965 36.7539 72.8672 36.7246 72.8672 36.666C72.8789 36.6074 72.8613 36.5781 72.8145 36.5781C72.8848 36.4609 72.9141 36.3965 72.9023 36.3848C72.9023 36.3613 72.8848 36.3438 72.8496 36.332C72.8262 36.3203 72.8027 36.3086 72.7793 36.2969C72.7559 36.2734 72.75 36.2441 72.7617 36.209C72.8086 36.1152 72.8262 36.0098 72.8145 35.8926C72.8027 35.7637 72.791 35.6348 72.7793 35.5059C72.7676 35.377 72.7734 35.2539 72.7969 35.1367C72.832 35.0195 72.9199 34.9258 73.0605 34.8555C73.459 34.9023 73.834 34.8906 74.1855 34.8203C74.5488 34.7383 74.8887 34.627 75.2051 34.4863C75.5215 34.3457 75.8203 34.1934 76.1016 34.0293C76.3945 33.8652 76.6816 33.7188 76.9629 33.5898C76.998 33.4844 77.0449 33.3965 77.1035 33.3262C77.1738 33.2559 77.2441 33.1914 77.3145 33.1328C77.3848 33.0742 77.4492 33.0098 77.5078 32.9395C77.5664 32.8691 77.6074 32.7812 77.6309 32.6758C77.6426 32.5938 77.6191 32.5469 77.5605 32.5352C77.5137 32.5117 77.4902 32.4648 77.4902 32.3945L77.2969 32.3418C77.0742 32.2129 76.8223 32.1074 76.541 32.0254C76.2598 31.9316 76.0195 31.832 75.8203 31.7266C75.6914 31.7969 75.5684 31.8145 75.4512 31.7793C75.3457 31.7441 75.2051 31.709 75.0293 31.6738C74.6309 31.6504 74.2441 31.6094 73.8691 31.5508C73.5059 31.4922 73.1543 31.3867 72.8145 31.2344C72.791 31.1758 72.7617 31.123 72.7266 31.0762C72.6914 31.0293 72.627 31.0176 72.5332 31.041C72.4629 30.9473 72.3926 30.8594 72.3223 30.7773C72.252 30.6836 72.1875 30.584 72.1289 30.4785C72.1523 30.3379 72.1699 30.2207 72.1816 30.127C72.1934 30.0215 72.1582 29.9219 72.0762 29.8281C72.123 29.6758 72.1582 29.5527 72.1816 29.459C72.2051 29.3652 72.2051 29.2422 72.1816 29.0898ZM90.252 28.5449C89.959 28.5449 89.6426 28.5684 89.3027 28.6152C88.9629 28.6504 88.6289 28.6914 88.3008 28.7383C88.0664 28.7734 87.8379 28.8027 87.6152 28.8262C87.4043 28.8496 87.2109 28.8672 87.0352 28.8789C86.9531 29.1367 86.8711 29.3652 86.7891 29.5645C86.707 29.7637 86.6191 29.957 86.5254 30.1445C86.4316 30.3438 86.3438 30.5488 86.2617 30.7598C86.1914 30.959 86.1211 31.1758 86.0508 31.4102C85.9336 31.5977 85.834 31.7734 85.752 31.9375C85.6816 32.0898 85.623 32.2656 85.5762 32.4648C85.4355 32.6406 85.3301 32.8281 85.2598 33.0273C85.1895 33.2148 85.1367 33.3789 85.1016 33.5195L85.0312 33.7305C84.9609 33.8008 84.9199 33.8594 84.9082 33.9062C84.8965 33.9414 84.8672 33.9766 84.8203 34.0117C84.8086 34.1406 84.7676 34.2695 84.6973 34.3984C84.6738 34.457 84.6562 34.5156 84.6445 34.5742C84.6328 34.6211 84.627 34.6562 84.627 34.6797C84.627 34.7969 84.5977 34.873 84.5391 34.9082C84.5508 34.9668 84.5508 35.0312 84.5391 35.1016C84.5273 35.1602 84.5156 35.2188 84.5039 35.2773C84.4688 35.418 84.457 35.5293 84.4688 35.6113C84.5039 35.6582 84.5332 35.6992 84.5566 35.7344C84.5918 35.7695 84.6152 35.8164 84.627 35.875C84.6973 35.9219 84.75 35.9512 84.7852 35.9629C84.832 35.998 84.9023 36.0391 84.9961 36.0859L85.1543 36.2617C85.2129 36.6016 85.1602 36.8711 84.9961 37.0703C84.8203 37.293 84.5215 37.4043 84.0996 37.4043H83.8887C83.8301 37.3457 83.7949 37.2988 83.7832 37.2637C83.6895 37.2285 83.6133 37.1992 83.5547 37.1758C83.4961 37.1523 83.4434 37.1055 83.3965 37.0352C83.2441 36.9648 83.1211 36.9062 83.0273 36.8594L82.8691 36.7715C82.8691 36.6426 82.8691 36.5723 82.8691 36.5605C82.7871 36.4551 82.7227 36.3379 82.6758 36.209C82.6406 36.0801 82.6113 35.9512 82.5879 35.8223C82.5645 35.7168 82.5352 35.6172 82.5 35.5234C82.4766 35.4297 82.4414 35.3477 82.3945 35.2773C82.3711 34.5977 82.4355 34.0234 82.5879 33.5547C82.7402 33.0859 82.8984 32.6348 83.0625 32.2012C83.1562 31.9668 83.25 31.7324 83.3438 31.498C83.4375 31.252 83.5195 31 83.5898 30.7422L83.748 30.5664C83.8301 30.3789 83.8945 30.2266 83.9414 30.1094C84 29.9805 84.0586 29.8516 84.1172 29.7227C84.1523 29.6406 84.1816 29.5645 84.2051 29.4941C84.2402 29.4121 84.2695 29.3418 84.293 29.2832C84.2227 29.2832 84.1582 29.2891 84.0996 29.3008C84.041 29.3008 83.9824 29.3066 83.9238 29.3184C83.8535 29.3301 83.7891 29.3418 83.7305 29.3535C83.6719 29.3535 83.6133 29.3535 83.5547 29.3535C83.4727 29.3535 83.4141 29.3477 83.3789 29.3359C83.25 29.3945 83.1094 29.4238 82.957 29.4238H82.7812C82.7461 29.4238 82.7109 29.4238 82.6758 29.4238C82.6523 29.4121 82.6289 29.4062 82.6055 29.4062C82.4883 29.4062 82.3945 29.4238 82.3242 29.459C82.1836 29.459 82.0488 29.459 81.9199 29.459H81.7441C81.7207 29.459 81.6914 29.4648 81.6562 29.4766C81.6211 29.4766 81.5918 29.4766 81.5684 29.4766C81.4863 29.4766 81.3984 29.4707 81.3047 29.459C81.2109 29.4355 81.1113 29.3945 81.0059 29.3359C80.8652 29.1484 80.7715 29.0488 80.7246 29.0371L80.5664 28.8262C80.5547 28.7559 80.5371 28.6914 80.5137 28.6328C80.4902 28.5625 80.4668 28.4863 80.4434 28.4043C80.3965 28.2871 80.3496 28.1641 80.3027 28.0352C80.2676 27.8945 80.25 27.7305 80.25 27.543C80.2617 27.4492 80.2852 27.3789 80.3203 27.332C80.3555 27.2852 80.3848 27.2441 80.4082 27.209L80.4609 26.9453L80.6895 26.9629H81.1816C81.5566 26.9629 81.9375 26.9512 82.3242 26.9277C82.7109 26.8926 83.1094 26.8574 83.5195 26.8223C83.7539 26.7988 83.9883 26.7754 84.2227 26.752C84.4688 26.7285 84.7207 26.7051 84.9785 26.6816C85.0254 26.5762 85.0723 26.4766 85.1191 26.3828L85.2949 26.2949C85.5059 26.2832 85.6523 26.3125 85.7344 26.3828C85.8281 26.4414 85.9043 26.5 85.9629 26.5586C86.2207 26.5352 86.4785 26.5117 86.7363 26.4883C87.0059 26.4531 87.2754 26.4121 87.5449 26.3652C87.9434 26.3066 88.3418 26.2539 88.7402 26.207C89.1504 26.1602 89.543 26.1367 89.918 26.1367C90.082 26.1367 90.2402 26.1426 90.3926 26.1543C90.5449 26.166 90.6855 26.1836 90.8145 26.207L90.9902 26.3301C91.0254 26.4004 91.0723 26.4648 91.1309 26.5234C91.2012 26.582 91.2715 26.6406 91.3418 26.6992C91.4824 26.8281 91.623 26.9805 91.7637 27.1562C91.9043 27.332 91.957 27.5898 91.9219 27.9297C91.8281 28.0703 91.7578 28.1523 91.7109 28.1758L91.5527 28.3867L91.377 28.3691C91.3066 28.3691 91.2422 28.3809 91.1836 28.4043C91.125 28.416 91.0664 28.4336 91.0078 28.457C90.9609 28.4805 90.9141 28.5039 90.8672 28.5273C90.8203 28.5391 90.7676 28.5508 90.709 28.5625C90.6035 28.5625 90.5156 28.5625 90.4453 28.5625C90.3867 28.5508 90.3223 28.5449 90.252 28.5449ZM102.855 37.0352C102.668 37.0469 102.434 37.041 102.152 37.0176C101.883 36.9941 101.631 37.0352 101.396 37.1406C100.775 37.1172 100.143 37.041 99.498 36.9121C98.8535 36.7832 98.2617 36.625 97.7227 36.4375C97.6055 36.3086 97.4883 36.1914 97.3711 36.0859C97.2539 35.9688 97.0957 35.8867 96.8965 35.8398C96.6152 35.6172 96.3867 35.3477 96.2109 35.0312C96.0352 34.7031 95.8945 34.3574 95.7891 33.9941C95.6836 33.6309 95.6133 33.2617 95.5781 32.8867C95.543 32.5 95.5312 32.1309 95.543 31.7793C95.7188 31.252 95.9648 30.8008 96.2812 30.4258C96.6094 30.0391 96.9434 29.6582 97.2832 29.2832C97.4355 29.2129 97.5469 29.1426 97.6172 29.0723C97.6992 28.9902 97.7812 28.9199 97.8633 28.8613C97.957 28.791 98.0449 28.7266 98.127 28.668C98.2207 28.5977 98.3027 28.5156 98.373 28.4219C98.6191 28.3633 98.8301 28.2812 99.0059 28.1758C99.1934 28.0586 99.375 27.9414 99.5508 27.8242C99.7266 27.6953 99.9082 27.5781 100.096 27.4727C100.283 27.3672 100.5 27.2852 100.746 27.2266C100.84 27.1211 100.951 27.0391 101.08 26.9805C101.209 26.9102 101.338 26.8457 101.467 26.7871C101.607 26.7168 101.736 26.6465 101.854 26.5762C101.982 26.5059 102.082 26.4121 102.152 26.2949C102.211 26.3887 102.293 26.4238 102.398 26.4004C102.504 26.3652 102.604 26.3301 102.697 26.2949C102.756 26.2832 102.803 26.2949 102.838 26.3301C102.885 26.3652 102.926 26.4004 102.961 26.4355C102.996 26.4707 103.025 26.4941 103.049 26.5059C103.084 26.5059 103.113 26.4766 103.137 26.418C103.195 26.418 103.213 26.4473 103.189 26.5059C103.166 26.5645 103.148 26.6055 103.137 26.6289C103.23 26.6172 103.307 26.6406 103.365 26.6992C103.436 26.7461 103.541 26.7754 103.682 26.7871C103.729 26.8457 103.74 26.8926 103.717 26.9277C103.693 26.9512 103.682 26.998 103.682 27.0684C104.033 27.1738 104.256 27.3438 104.35 27.5781C104.443 27.8008 104.449 28.0352 104.367 28.2812C104.285 28.5273 104.139 28.7559 103.928 28.9668C103.717 29.1777 103.488 29.3184 103.242 29.3887C102.68 29.541 102.146 29.7109 101.643 29.8984C101.15 30.0742 100.746 30.3379 100.43 30.6895C100.148 30.7715 99.8965 30.8828 99.6738 31.0234C99.4629 31.1523 99.2578 31.3047 99.0586 31.4805C98.8711 31.6445 98.6895 31.8203 98.5137 32.0078C98.3496 32.1836 98.1738 32.3594 97.9863 32.5352C97.998 32.6992 97.9688 32.8281 97.8984 32.9219C97.8398 33.0039 97.7812 33.0918 97.7227 33.1855C97.7461 33.3613 97.7871 33.5195 97.8457 33.6602C97.9043 33.7891 97.9688 33.918 98.0391 34.0469C98.8125 34.2812 99.6328 34.4277 100.5 34.4863C101.379 34.5449 102.258 34.5801 103.137 34.5918C103.219 34.709 103.312 34.8203 103.418 34.9258C103.535 35.0195 103.641 35.125 103.734 35.2422C103.828 35.3477 103.904 35.4707 103.963 35.6113C104.021 35.7402 104.033 35.9043 103.998 36.1035C103.834 36.2793 103.652 36.4434 103.453 36.5957C103.254 36.7363 103.055 36.8828 102.855 37.0352ZM115.037 31.7266C115.025 31.8672 115.037 32.002 115.072 32.1309C115.107 32.2598 115.148 32.3887 115.195 32.5176C115.254 32.6348 115.307 32.7578 115.354 32.8867C115.4 33.0156 115.436 33.1445 115.459 33.2734C115.482 33.4375 115.482 33.6191 115.459 33.8184C115.436 34.0059 115.395 34.1934 115.336 34.3809C115.277 34.5566 115.201 34.7207 115.107 34.873C115.014 35.0137 114.902 35.1191 114.773 35.1895C114.609 35.4004 114.41 35.5645 114.176 35.6816C113.941 35.7988 113.725 35.9395 113.525 36.1035C113.396 36.1855 113.25 36.2441 113.086 36.2793C112.934 36.3145 112.775 36.3496 112.611 36.3848C112.482 36.4551 112.33 36.5312 112.154 36.6133C111.979 36.6836 111.797 36.7539 111.609 36.8242C111.422 36.8828 111.234 36.9297 111.047 36.9648C110.859 36.9883 110.695 36.9941 110.555 36.9824C110.203 37.1113 109.857 37.1934 109.518 37.2285C109.189 37.2754 108.803 37.252 108.357 37.1582C107.936 37.2168 107.543 37.1992 107.18 37.1055C106.828 37.0117 106.512 36.8652 106.23 36.666C105.961 36.4551 105.721 36.209 105.51 35.9277C105.311 35.6348 105.146 35.3301 105.018 35.0137C104.924 34.3457 104.947 33.7422 105.088 33.2031C105.229 32.6523 105.428 32.1484 105.686 31.6914C105.955 31.2227 106.26 30.7949 106.6 30.4082C106.939 30.0098 107.268 29.623 107.584 29.248C107.654 29.2715 107.707 29.2715 107.742 29.248C107.789 29.2129 107.83 29.1719 107.865 29.125C107.9 29.0664 107.936 29.0137 107.971 28.9668C108.018 28.9199 108.07 28.8906 108.129 28.8789C108.211 28.7031 108.328 28.5742 108.48 28.4922C108.645 28.3984 108.773 28.2695 108.867 28.1055C108.973 28.082 109.061 28.0469 109.131 28C109.201 27.9531 109.266 27.9004 109.324 27.8418C109.395 27.7832 109.465 27.7305 109.535 27.6836C109.605 27.625 109.688 27.584 109.781 27.5605V27.3672C109.992 27.2734 110.145 27.168 110.238 27.0508C110.344 26.9219 110.467 26.7695 110.607 26.5938C110.713 26.582 110.795 26.5762 110.854 26.5762C110.924 26.5762 111.023 26.5645 111.152 26.541C111.246 26.377 111.328 26.2539 111.398 26.1719C111.48 26.0898 111.598 26.002 111.75 25.9082C111.891 25.9785 112.043 26.0254 112.207 26.0488C112.383 26.0723 112.535 26.1484 112.664 26.2773C112.676 26.3945 112.711 26.4883 112.77 26.5586C112.828 26.6172 112.893 26.6758 112.963 26.7344C113.033 26.7812 113.098 26.834 113.156 26.8926C113.227 26.9512 113.273 27.0332 113.297 27.1387C113.344 27.1504 113.373 27.1445 113.385 27.1211C113.408 27.0977 113.443 27.0918 113.49 27.1035C113.525 27.2676 113.566 27.3789 113.613 27.4375C113.66 27.4844 113.707 27.584 113.754 27.7363C113.695 27.8535 113.648 27.9766 113.613 28.1055C113.59 28.2227 113.52 28.3105 113.402 28.3691C113.391 28.4512 113.414 28.498 113.473 28.5098C113.531 28.5098 113.566 28.5391 113.578 28.5977C113.59 28.7031 113.572 28.7793 113.525 28.8262C113.807 29.2832 114.059 29.7695 114.281 30.2852C114.504 30.7891 114.756 31.2695 115.037 31.7266ZM112.84 33.3965C112.887 33.2676 112.945 33.1621 113.016 33.0801C113.098 32.998 113.145 32.875 113.156 32.7109C113.098 32.6172 113.062 32.5469 113.051 32.5C113.039 32.4414 113.033 32.3535 113.033 32.2363C112.775 31.873 112.553 31.4863 112.365 31.0762C112.178 30.6543 111.967 30.2617 111.732 29.8984C111.709 29.9453 111.668 29.9922 111.609 30.0391C111.551 30.0859 111.486 30.0742 111.416 30.0039C111.393 30.0977 111.352 30.168 111.293 30.2148C111.234 30.25 111.17 30.2676 111.1 30.2676C111.029 30.2559 110.953 30.2383 110.871 30.2148C110.801 30.1797 110.736 30.1387 110.678 30.0918C110.338 30.3613 109.998 30.625 109.658 30.8828C109.318 31.1406 109.014 31.4395 108.744 31.7793C108.697 31.8027 108.668 31.8145 108.656 31.8145C108.645 31.8027 108.609 31.8086 108.551 31.832C108.457 32.0547 108.34 32.2598 108.199 32.4473C108.07 32.623 107.941 32.8047 107.812 32.9922C107.684 33.1797 107.572 33.3789 107.479 33.5898C107.385 33.8008 107.332 34.0469 107.32 34.3281C107.52 34.4922 107.754 34.5918 108.023 34.627C108.293 34.6621 108.568 34.668 108.85 34.6445C109.143 34.6211 109.424 34.5859 109.693 34.5391C109.975 34.4805 110.232 34.4512 110.467 34.4512C110.959 34.334 111.381 34.1816 111.732 33.9941C112.084 33.7949 112.453 33.5957 112.84 33.3965ZM119.713 33.8008C119.607 33.8242 119.531 33.8887 119.484 33.9941C119.438 34.0879 119.391 34.1875 119.344 34.293C119.309 34.3984 119.268 34.498 119.221 34.5918C119.186 34.6738 119.127 34.7148 119.045 34.7148C119.033 34.8086 118.998 34.8906 118.939 34.9609C118.893 35.0312 118.846 35.1074 118.799 35.1895C118.752 35.2598 118.717 35.3418 118.693 35.4355C118.67 35.5176 118.682 35.6172 118.729 35.7344C118.635 35.8047 118.576 35.9043 118.553 36.0332C118.529 36.1621 118.5 36.2852 118.465 36.4023C118.441 36.5195 118.395 36.6191 118.324 36.7012C118.254 36.7832 118.125 36.8184 117.938 36.8066C117.902 36.8535 117.896 36.8828 117.92 36.8945C117.943 36.9062 117.961 36.9473 117.973 37.0176C117.844 36.9941 117.744 37 117.674 37.0352C117.615 37.082 117.539 37.1113 117.445 37.123C117.223 37.0527 117.035 36.9297 116.883 36.7539C116.742 36.5781 116.613 36.3848 116.496 36.1738C116.391 35.9512 116.291 35.7285 116.197 35.5059C116.115 35.2832 116.033 35.0898 115.951 34.9258C115.986 34.7969 115.992 34.6738 115.969 34.5566C115.945 34.4277 115.904 34.3223 115.846 34.2402C116.42 33.0215 117.047 31.7207 117.727 30.3379C118.406 28.9551 119.051 27.5898 119.66 26.2422C119.93 26.3477 120.193 26.4707 120.451 26.6113C120.721 26.7402 120.961 26.8926 121.172 27.0684C121.395 27.2441 121.582 27.4492 121.734 27.6836C121.887 27.9062 121.986 28.1582 122.033 28.4395C122.01 28.5098 121.98 28.5391 121.945 28.5273C121.922 28.5039 121.898 28.5098 121.875 28.5449C121.922 28.6035 121.945 28.6445 121.945 28.668C121.957 28.6914 121.957 28.7148 121.945 28.7383C121.945 28.7617 121.945 28.7969 121.945 28.8438C121.945 28.8789 121.963 28.9316 121.998 29.002C121.951 28.9902 121.916 28.9961 121.893 29.0195C121.881 29.043 121.846 29.043 121.787 29.0195C121.834 29.1484 121.846 29.2539 121.822 29.3359C121.811 29.418 121.787 29.4941 121.752 29.5645C121.717 29.623 121.688 29.6934 121.664 29.7754C121.641 29.8457 121.646 29.9395 121.682 30.0566C121.646 30.0566 121.617 30.0684 121.594 30.0918C121.582 30.1035 121.57 30.1211 121.559 30.1445C121.547 30.1562 121.529 30.1738 121.506 30.1973C121.494 30.209 121.471 30.209 121.436 30.1973C121.471 30.4551 121.482 30.7129 121.471 30.9707C121.459 31.2285 121.447 31.4922 121.436 31.7617C121.436 32.0195 121.441 32.2949 121.453 32.5879C121.465 32.8691 121.506 33.1621 121.576 33.4668C121.998 33.2207 122.332 32.9043 122.578 32.5176C122.836 32.1309 123.041 31.6973 123.193 31.2168C123.357 30.7363 123.48 30.2207 123.562 29.6699C123.645 29.1191 123.732 28.5566 123.826 27.9824C123.932 27.877 124.014 27.748 124.072 27.5957C124.131 27.4434 124.184 27.2852 124.23 27.1211C124.277 26.9453 124.324 26.7754 124.371 26.6113C124.418 26.4355 124.477 26.2773 124.547 26.1367C124.723 26.1602 124.869 26.2188 124.986 26.3125C125.115 26.3945 125.232 26.4883 125.338 26.5938C125.443 26.6875 125.555 26.7812 125.672 26.875C125.789 26.957 125.936 27.0098 126.111 27.0332C126.252 27.2324 126.381 27.4258 126.498 27.6133C126.615 27.8008 126.691 28 126.727 28.2109C126.668 28.3047 126.621 28.4102 126.586 28.5273C126.562 28.6445 126.533 28.7617 126.498 28.8789C126.463 28.9961 126.416 29.1074 126.357 29.2129C126.299 29.3066 126.217 29.3887 126.111 29.459C126.076 29.7637 126.029 30.0449 125.971 30.3027C125.924 30.5488 125.871 30.7949 125.812 31.041C125.766 31.2871 125.725 31.5449 125.689 31.8145C125.654 32.0723 125.643 32.3594 125.654 32.6758C125.561 32.9453 125.461 33.2324 125.355 33.5371C125.25 33.8418 125.168 34.1172 125.109 34.3633C124.922 34.5156 124.775 34.6973 124.67 34.9082C124.564 35.1191 124.453 35.3301 124.336 35.541C124.289 35.5879 124.26 35.5996 124.248 35.5762C124.236 35.5527 124.195 35.5352 124.125 35.5234C124.137 35.5703 124.137 35.6055 124.125 35.6289C124.113 35.6523 124.096 35.6758 124.072 35.6992C124.061 35.7109 124.049 35.7344 124.037 35.7695C124.037 35.8047 124.049 35.8516 124.072 35.9102C123.908 35.9805 123.762 36.0801 123.633 36.209C123.504 36.3379 123.363 36.4551 123.211 36.5605C123.07 36.666 122.895 36.7363 122.684 36.7715C122.484 36.8066 122.221 36.7656 121.893 36.6484C121.412 36.2969 120.984 35.8926 120.609 35.4355C120.246 34.9785 119.947 34.4336 119.713 33.8008ZM136.271 28.5449C135.979 28.5449 135.662 28.5684 135.322 28.6152C134.982 28.6504 134.648 28.6914 134.32 28.7383C134.086 28.7734 133.857 28.8027 133.635 28.8262C133.424 28.8496 133.23 28.8672 133.055 28.8789C132.973 29.1367 132.891 29.3652 132.809 29.5645C132.727 29.7637 132.639 29.957 132.545 30.1445C132.451 30.3438 132.363 30.5488 132.281 30.7598C132.211 30.959 132.141 31.1758 132.07 31.4102C131.953 31.5977 131.854 31.7734 131.771 31.9375C131.701 32.0898 131.643 32.2656 131.596 32.4648C131.455 32.6406 131.35 32.8281 131.279 33.0273C131.209 33.2148 131.156 33.3789 131.121 33.5195L131.051 33.7305C130.98 33.8008 130.939 33.8594 130.928 33.9062C130.916 33.9414 130.887 33.9766 130.84 34.0117C130.828 34.1406 130.787 34.2695 130.717 34.3984C130.693 34.457 130.676 34.5156 130.664 34.5742C130.652 34.6211 130.646 34.6562 130.646 34.6797C130.646 34.7969 130.617 34.873 130.559 34.9082C130.57 34.9668 130.57 35.0312 130.559 35.1016C130.547 35.1602 130.535 35.2188 130.523 35.2773C130.488 35.418 130.477 35.5293 130.488 35.6113C130.523 35.6582 130.553 35.6992 130.576 35.7344C130.611 35.7695 130.635 35.8164 130.646 35.875C130.717 35.9219 130.77 35.9512 130.805 35.9629C130.852 35.998 130.922 36.0391 131.016 36.0859L131.174 36.2617C131.232 36.6016 131.18 36.8711 131.016 37.0703C130.84 37.293 130.541 37.4043 130.119 37.4043H129.908C129.85 37.3457 129.814 37.2988 129.803 37.2637C129.709 37.2285 129.633 37.1992 129.574 37.1758C129.516 37.1523 129.463 37.1055 129.416 37.0352C129.264 36.9648 129.141 36.9062 129.047 36.8594L128.889 36.7715C128.889 36.6426 128.889 36.5723 128.889 36.5605C128.807 36.4551 128.742 36.3379 128.695 36.209C128.66 36.0801 128.631 35.9512 128.607 35.8223C128.584 35.7168 128.555 35.6172 128.52 35.5234C128.496 35.4297 128.461 35.3477 128.414 35.2773C128.391 34.5977 128.455 34.0234 128.607 33.5547C128.76 33.0859 128.918 32.6348 129.082 32.2012C129.176 31.9668 129.27 31.7324 129.363 31.498C129.457 31.252 129.539 31 129.609 30.7422L129.768 30.5664C129.85 30.3789 129.914 30.2266 129.961 30.1094C130.02 29.9805 130.078 29.8516 130.137 29.7227C130.172 29.6406 130.201 29.5645 130.225 29.4941C130.26 29.4121 130.289 29.3418 130.312 29.2832C130.242 29.2832 130.178 29.2891 130.119 29.3008C130.061 29.3008 130.002 29.3066 129.943 29.3184C129.873 29.3301 129.809 29.3418 129.75 29.3535C129.691 29.3535 129.633 29.3535 129.574 29.3535C129.492 29.3535 129.434 29.3477 129.398 29.3359C129.27 29.3945 129.129 29.4238 128.977 29.4238H128.801C128.766 29.4238 128.73 29.4238 128.695 29.4238C128.672 29.4121 128.648 29.4062 128.625 29.4062C128.508 29.4062 128.414 29.4238 128.344 29.459C128.203 29.459 128.068 29.459 127.939 29.459H127.764C127.74 29.459 127.711 29.4648 127.676 29.4766C127.641 29.4766 127.611 29.4766 127.588 29.4766C127.506 29.4766 127.418 29.4707 127.324 29.459C127.23 29.4355 127.131 29.3945 127.025 29.3359C126.885 29.1484 126.791 29.0488 126.744 29.0371L126.586 28.8262C126.574 28.7559 126.557 28.6914 126.533 28.6328C126.51 28.5625 126.486 28.4863 126.463 28.4043C126.416 28.2871 126.369 28.1641 126.322 28.0352C126.287 27.8945 126.27 27.7305 126.27 27.543C126.281 27.4492 126.305 27.3789 126.34 27.332C126.375 27.2852 126.404 27.2441 126.428 27.209L126.48 26.9453L126.709 26.9629H127.201C127.576 26.9629 127.957 26.9512 128.344 26.9277C128.73 26.8926 129.129 26.8574 129.539 26.8223C129.773 26.7988 130.008 26.7754 130.242 26.752C130.488 26.7285 130.74 26.7051 130.998 26.6816C131.045 26.5762 131.092 26.4766 131.139 26.3828L131.314 26.2949C131.525 26.2832 131.672 26.3125 131.754 26.3828C131.848 26.4414 131.924 26.5 131.982 26.5586C132.24 26.5352 132.498 26.5117 132.756 26.4883C133.025 26.4531 133.295 26.4121 133.564 26.3652C133.963 26.3066 134.361 26.2539 134.76 26.207C135.17 26.1602 135.562 26.1367 135.938 26.1367C136.102 26.1367 136.26 26.1426 136.412 26.1543C136.564 26.166 136.705 26.1836 136.834 26.207L137.01 26.3301C137.045 26.4004 137.092 26.4648 137.15 26.5234C137.221 26.582 137.291 26.6406 137.361 26.6992C137.502 26.8281 137.643 26.9805 137.783 27.1562C137.924 27.332 137.977 27.5898 137.941 27.9297C137.848 28.0703 137.777 28.1523 137.73 28.1758L137.572 28.3867L137.396 28.3691C137.326 28.3691 137.262 28.3809 137.203 28.4043C137.145 28.416 137.086 28.4336 137.027 28.457C136.98 28.4805 136.934 28.5039 136.887 28.5273C136.84 28.5391 136.787 28.5508 136.729 28.5625C136.623 28.5625 136.535 28.5625 136.465 28.5625C136.406 28.5508 136.342 28.5449 136.271 28.5449ZM137.73 35.1719C137.602 35.6406 137.484 35.998 137.379 36.2441C137.285 36.4785 137.139 36.7246 136.939 36.9824C136.787 36.959 136.682 36.9766 136.623 37.0352C136.564 37.0938 136.5 37.1465 136.43 37.1934C136.324 37.2168 136.248 37.2168 136.201 37.1934C136.154 37.1699 136.113 37.1406 136.078 37.1055C136.043 37.082 135.996 37.0527 135.938 37.0176C135.891 36.9941 135.814 36.9824 135.709 36.9824C135.686 36.8887 135.656 36.8008 135.621 36.7188C135.598 36.6367 135.521 36.6074 135.393 36.6309C135.416 36.5371 135.422 36.4609 135.41 36.4023C135.398 36.332 135.381 36.2734 135.357 36.2266C135.346 36.168 135.334 36.1152 135.322 36.0684C135.311 36.0098 135.316 35.9395 135.34 35.8574C135.281 35.8574 135.234 35.8164 135.199 35.7344C135.164 35.6523 135.123 35.5703 135.076 35.4883C135.111 35.2773 135.146 35.0781 135.182 34.8906C135.217 34.7031 135.258 34.5273 135.305 34.3633C135.363 34.1992 135.41 34.0352 135.445 33.8711C135.48 33.707 135.463 33.5371 135.393 33.3613C135.439 33.3965 135.475 33.3906 135.498 33.3438C135.521 33.2852 135.539 33.2148 135.551 33.1328C135.562 33.0391 135.568 32.9512 135.568 32.8691C135.568 32.7754 135.562 32.6992 135.551 32.6406C135.668 32.3359 135.762 32.0254 135.832 31.709C135.914 31.3809 135.984 31.0586 136.043 30.7422C136.113 30.4258 136.184 30.1152 136.254 29.8105C136.324 29.5059 136.418 29.2246 136.535 28.9668C136.664 28.9434 136.805 28.9609 136.957 29.0195C137.121 29.0664 137.221 29.1309 137.256 29.2129C137.561 28.9785 137.83 28.6973 138.064 28.3691C138.299 28.0293 138.539 27.7012 138.785 27.3848C139.031 27.0684 139.301 26.7871 139.594 26.541C139.898 26.2949 140.279 26.1484 140.736 26.1016C140.971 26.2773 141.229 26.459 141.51 26.6465C141.803 26.8223 142.043 27.0566 142.23 27.3496C142.324 27.3965 142.4 27.4492 142.459 27.5078C142.529 27.5547 142.611 27.6074 142.705 27.666V27.877C142.846 28.0059 142.957 28.1582 143.039 28.334C143.133 28.498 143.215 28.6797 143.285 28.8789C143.355 29.0664 143.426 29.2598 143.496 29.459C143.566 29.6465 143.648 29.8281 143.742 30.0039C143.719 30.0625 143.707 30.1152 143.707 30.1621C143.707 30.1973 143.713 30.2383 143.725 30.2852C143.748 30.332 143.766 30.3789 143.777 30.4258C143.789 30.4727 143.789 30.5371 143.777 30.6191C143.742 31.1348 143.572 31.5508 143.268 31.8672C142.975 32.1836 142.617 32.4473 142.195 32.6582C141.773 32.8574 141.322 33.0273 140.842 33.168C140.361 33.3086 139.928 33.4609 139.541 33.625C139.541 33.6719 139.559 33.6953 139.594 33.6953C139.641 33.6953 139.658 33.7246 139.646 33.7832C139.928 33.959 140.15 34.0996 140.314 34.2051C140.479 34.3105 140.631 34.3984 140.771 34.4688C140.924 34.5391 141.082 34.6035 141.246 34.6621C141.422 34.709 141.662 34.7676 141.967 34.8379C142.271 34.9082 142.506 34.9668 142.67 35.0137C142.846 35.0488 143.004 35.084 143.145 35.1191C143.285 35.1426 143.426 35.166 143.566 35.1895C143.719 35.2012 143.93 35.2188 144.199 35.2422C144.305 35.3477 144.393 35.4766 144.463 35.6289C144.545 35.7695 144.598 35.916 144.621 36.0684C144.645 36.209 144.65 36.3496 144.639 36.4902C144.627 36.6191 144.586 36.7246 144.516 36.8066C144.527 36.8418 144.551 36.8594 144.586 36.8594C144.633 36.8477 144.68 36.8477 144.727 36.8594C144.656 36.9062 144.598 36.9648 144.551 37.0352C144.504 37.1055 144.457 37.1758 144.41 37.2461C144.363 37.3164 144.311 37.375 144.252 37.4219C144.193 37.4805 144.111 37.5156 144.006 37.5273C143.643 37.668 143.186 37.6738 142.635 37.5449C142.084 37.4277 141.387 37.2051 140.543 36.877C140.121 36.7129 139.775 36.5723 139.506 36.4551C139.248 36.3262 139.02 36.2031 138.82 36.0859C138.633 35.957 138.457 35.8223 138.293 35.6816C138.141 35.541 137.953 35.3711 137.73 35.1719ZM140.244 29.1426C140.115 29.3301 139.969 29.5 139.805 29.6523C139.652 29.8047 139.5 29.9629 139.348 30.127C139.207 30.2793 139.078 30.4551 138.961 30.6543C138.844 30.8418 138.762 31.0645 138.715 31.3223C139.125 31.2754 139.553 31.1641 139.998 30.9883C140.443 30.8008 140.865 30.625 141.264 30.4609C141.217 30.0977 141.088 29.8047 140.877 29.582C140.678 29.3594 140.467 29.2129 140.244 29.1426ZM154.887 31.7266C154.875 31.8672 154.887 32.002 154.922 32.1309C154.957 32.2598 154.998 32.3887 155.045 32.5176C155.104 32.6348 155.156 32.7578 155.203 32.8867C155.25 33.0156 155.285 33.1445 155.309 33.2734C155.332 33.4375 155.332 33.6191 155.309 33.8184C155.285 34.0059 155.244 34.1934 155.186 34.3809C155.127 34.5566 155.051 34.7207 154.957 34.873C154.863 35.0137 154.752 35.1191 154.623 35.1895C154.459 35.4004 154.26 35.5645 154.025 35.6816C153.791 35.7988 153.574 35.9395 153.375 36.1035C153.246 36.1855 153.1 36.2441 152.936 36.2793C152.783 36.3145 152.625 36.3496 152.461 36.3848C152.332 36.4551 152.18 36.5312 152.004 36.6133C151.828 36.6836 151.646 36.7539 151.459 36.8242C151.271 36.8828 151.084 36.9297 150.896 36.9648C150.709 36.9883 150.545 36.9941 150.404 36.9824C150.053 37.1113 149.707 37.1934 149.367 37.2285C149.039 37.2754 148.652 37.252 148.207 37.1582C147.785 37.2168 147.393 37.1992 147.029 37.1055C146.678 37.0117 146.361 36.8652 146.08 36.666C145.811 36.4551 145.57 36.209 145.359 35.9277C145.16 35.6348 144.996 35.3301 144.867 35.0137C144.773 34.3457 144.797 33.7422 144.938 33.2031C145.078 32.6523 145.277 32.1484 145.535 31.6914C145.805 31.2227 146.109 30.7949 146.449 30.4082C146.789 30.0098 147.117 29.623 147.434 29.248C147.504 29.2715 147.557 29.2715 147.592 29.248C147.639 29.2129 147.68 29.1719 147.715 29.125C147.75 29.0664 147.785 29.0137 147.82 28.9668C147.867 28.9199 147.92 28.8906 147.979 28.8789C148.061 28.7031 148.178 28.5742 148.33 28.4922C148.494 28.3984 148.623 28.2695 148.717 28.1055C148.822 28.082 148.91 28.0469 148.98 28C149.051 27.9531 149.115 27.9004 149.174 27.8418C149.244 27.7832 149.314 27.7305 149.385 27.6836C149.455 27.625 149.537 27.584 149.631 27.5605V27.3672C149.842 27.2734 149.994 27.168 150.088 27.0508C150.193 26.9219 150.316 26.7695 150.457 26.5938C150.562 26.582 150.645 26.5762 150.703 26.5762C150.773 26.5762 150.873 26.5645 151.002 26.541C151.096 26.377 151.178 26.2539 151.248 26.1719C151.33 26.0898 151.447 26.002 151.6 25.9082C151.74 25.9785 151.893 26.0254 152.057 26.0488C152.232 26.0723 152.385 26.1484 152.514 26.2773C152.525 26.3945 152.561 26.4883 152.619 26.5586C152.678 26.6172 152.742 26.6758 152.812 26.7344C152.883 26.7812 152.947 26.834 153.006 26.8926C153.076 26.9512 153.123 27.0332 153.146 27.1387C153.193 27.1504 153.223 27.1445 153.234 27.1211C153.258 27.0977 153.293 27.0918 153.34 27.1035C153.375 27.2676 153.416 27.3789 153.463 27.4375C153.51 27.4844 153.557 27.584 153.604 27.7363C153.545 27.8535 153.498 27.9766 153.463 28.1055C153.439 28.2227 153.369 28.3105 153.252 28.3691C153.24 28.4512 153.264 28.498 153.322 28.5098C153.381 28.5098 153.416 28.5391 153.428 28.5977C153.439 28.7031 153.422 28.7793 153.375 28.8262C153.656 29.2832 153.908 29.7695 154.131 30.2852C154.354 30.7891 154.605 31.2695 154.887 31.7266ZM152.689 33.3965C152.736 33.2676 152.795 33.1621 152.865 33.0801C152.947 32.998 152.994 32.875 153.006 32.7109C152.947 32.6172 152.912 32.5469 152.9 32.5C152.889 32.4414 152.883 32.3535 152.883 32.2363C152.625 31.873 152.402 31.4863 152.215 31.0762C152.027 30.6543 151.816 30.2617 151.582 29.8984C151.559 29.9453 151.518 29.9922 151.459 30.0391C151.4 30.0859 151.336 30.0742 151.266 30.0039C151.242 30.0977 151.201 30.168 151.143 30.2148C151.084 30.25 151.02 30.2676 150.949 30.2676C150.879 30.2559 150.803 30.2383 150.721 30.2148C150.65 30.1797 150.586 30.1387 150.527 30.0918C150.188 30.3613 149.848 30.625 149.508 30.8828C149.168 31.1406 148.863 31.4395 148.594 31.7793C148.547 31.8027 148.518 31.8145 148.506 31.8145C148.494 31.8027 148.459 31.8086 148.4 31.832C148.307 32.0547 148.189 32.2598 148.049 32.4473C147.92 32.623 147.791 32.8047 147.662 32.9922C147.533 33.1797 147.422 33.3789 147.328 33.5898C147.234 33.8008 147.182 34.0469 147.17 34.3281C147.369 34.4922 147.604 34.5918 147.873 34.627C148.143 34.6621 148.418 34.668 148.699 34.6445C148.992 34.6211 149.273 34.5859 149.543 34.5391C149.824 34.4805 150.082 34.4512 150.316 34.4512C150.809 34.334 151.23 34.1816 151.582 33.9941C151.934 33.7949 152.303 33.5957 152.689 33.3965ZM160.6 36.8066C160.271 36.9121 159.914 37.0176 159.527 37.123C159.141 37.2285 158.754 37.2812 158.367 37.2812C157.781 37.2812 157.318 37.1348 156.979 36.8418C156.92 36.7129 156.867 36.625 156.82 36.5781C156.785 36.5312 156.75 36.4844 156.715 36.4375C156.691 36.3789 156.674 36.3027 156.662 36.209C156.521 36.0449 156.41 35.8574 156.328 35.6465C156.246 35.4238 156.188 35.2012 156.152 34.9785C156.129 34.7441 156.123 34.5098 156.135 34.2754C156.158 34.041 156.199 33.8184 156.258 33.6074C156.281 33.5605 156.293 33.5137 156.293 33.4668C156.305 33.4199 156.316 33.3672 156.328 33.3086C156.375 33.1211 156.422 32.9395 156.469 32.7637C156.527 32.5879 156.604 32.4355 156.697 32.3066C156.65 32.2012 156.65 32.084 156.697 31.9551C156.744 31.8262 156.797 31.709 156.855 31.6035C157.02 31.1582 157.154 30.7832 157.26 30.4785C157.377 30.1621 157.494 29.8516 157.611 29.5469C157.811 29.0195 157.998 28.498 158.174 27.9824C158.35 27.4668 158.508 26.9102 158.648 26.3125C158.742 26.2539 158.812 26.2129 158.859 26.1895C158.93 26.166 158.988 26.1484 159.035 26.1367C159.246 26.2422 159.492 26.3477 159.773 26.4531C160.055 26.5469 160.289 26.5938 160.477 26.5938C160.57 26.6523 160.629 26.6992 160.652 26.7344C160.676 26.7578 160.699 26.7812 160.723 26.8047C160.852 26.957 160.963 27.1152 161.057 27.2793C161.15 27.4316 161.18 27.6367 161.145 27.8945C161.074 28 161.021 28.0527 160.986 28.0527C160.928 28.2871 160.863 28.4863 160.793 28.6504C160.734 28.8145 160.67 28.9785 160.6 29.1426C160.518 29.3184 160.441 29.4941 160.371 29.6699C160.301 29.8457 160.242 30.0625 160.195 30.3203C160.148 30.3789 160.113 30.4316 160.09 30.4785C160.078 30.5254 160.061 30.5781 160.037 30.6367C160.014 30.6953 159.984 30.7598 159.949 30.8301C159.926 30.8887 159.885 30.9414 159.826 30.9883C159.791 31.293 159.732 31.5391 159.65 31.7266C159.58 31.9141 159.504 32.1016 159.422 32.2891C159.281 32.6289 159.152 32.9688 159.035 33.3086C158.93 33.6484 158.865 34.0352 158.842 34.4688C158.9 34.4453 158.953 34.4336 159 34.4336C159.059 34.4336 159.111 34.4336 159.158 34.4336C159.264 34.4336 159.387 34.4512 159.527 34.4863C159.879 34.2988 160.26 34.1875 160.67 34.1523C161.092 34.1172 161.508 34.0938 161.918 34.082C162.082 34.082 162.246 34.082 162.41 34.082C162.574 34.082 162.727 34.0703 162.867 34.0469C162.973 34.1055 163.037 34.1406 163.061 34.1523C163.096 34.1523 163.143 34.1523 163.201 34.1523C163.283 34.1523 163.354 34.1582 163.412 34.1699C163.553 34.2988 163.688 34.3926 163.816 34.4512C163.945 34.5098 164.08 34.5625 164.221 34.6094C164.35 34.6562 164.473 34.709 164.59 34.7676C164.719 34.8145 164.842 34.8848 164.959 34.9785L165.082 35.7344C165.164 35.8398 165.199 35.9102 165.188 35.9453C165.188 36.0391 165.164 36.1094 165.117 36.1562L165.152 36.3496C164.977 36.3848 164.854 36.4258 164.783 36.4727C164.725 36.5195 164.666 36.5723 164.607 36.6309C164.514 36.6426 164.443 36.6484 164.396 36.6484C164.361 36.6484 164.326 36.6484 164.291 36.6484C164.127 36.6484 163.928 36.6777 163.693 36.7363C163.377 36.6309 163.049 36.5781 162.709 36.5781C162.58 36.5781 162.445 36.584 162.305 36.5957C162.164 36.6074 162.023 36.6191 161.883 36.6309C161.742 36.6543 161.596 36.6719 161.443 36.6836C161.303 36.6953 161.156 36.7012 161.004 36.7012L160.6 36.8066Z" fill="white"/>
</g>
<defs>
<filter id="filter0_i_1_75" x="0" y="3.35107" width="165.205" height="62.6377" filterUnits="userSpaceOnUse" color-interpolation-filters="sRGB">
<feFlood flood-opacity="0" result="BackgroundImageFix"/>
<feBlend mode="normal" in="SourceGraphic" in2="BackgroundImageFix" result="shape"/>
<feColorMatrix in="SourceAlpha" type="matrix" values="0 0 0 0 0 0 0 0 0 0 0 0 0 0 0 0 0 0 127 0" result="hardAlpha"/>
<feOffset dy="4"/>
<feComposite in2="hardAlpha" operator="arithmetic" k2="-1" k3="1"/>
<feColorMatrix type="matrix" values="0 0 0 0 0 0 0 0 0 0 0 0 0 0 0 0 0 0 0.1 0"/>
<feBlend mode="normal" in2="shape" result="effect1_innerShadow_1_75"/>
</filter>
<filter id="filter1_d_1_75" x="0" y="0.351074" width="51.5557" height="65.6377" filterUnits="userSpaceOnUse" color-interpolation-filters="sRGB">
<feFlood flood-opacity="0" result="BackgroundImageFix"/>
<feColorMatrix in="SourceAlpha" type="matrix" values="0 0 0 0 0 0 0 0 0 0 0 0 0 0 0 0 0 0 127 0" result="hardAlpha"/>
<feOffset dx="2" dy="-2"/>
<feGaussianBlur stdDeviation="0.5"/>
<feComposite in2="hardAlpha" operator="out"/>
<feColorMatrix type="matrix" values="0 0 0 0 0.317647 0 0 0 0 0.909804 0 0 0 0 0.937255 0 0 0 0.4 0"/>
<feBlend mode="normal" in2="BackgroundImageFix" result="effect1_dropShadow_1_75"/>
<feBlend mode="normal" in="SourceGraphic" in2="effect1_dropShadow_1_75" result="shape"/>
</filter>
</defs>
</svg>
